<?xml version="1.0" standalone="no"?>
<!DOCTYPE svg PUBLIC "-//W3C//DTD SVG 20010904//EN"
 "http://www.w3.org/TR/2001/REC-SVG-20010904/DTD/svg10.dtd">
<svg version="1.0" xmlns="http://www.w3.org/2000/svg"
 width="200.000000pt" height="200.000000pt" viewBox="0 0 200.000000 200.000000"
 preserveAspectRatio="xMidYMid meet">
<metadata>
Created by potrace 1.16, written by Peter Selinger 2001-2019
</metadata>
<g transform="translate(0.000000,200.000000) scale(0.100000,-0.100000)"
fill="#000000" stroke="none">
<path d="M22 1988 c-7 -7 -12 -34 -12 -61 0 -48 21 -123 107 -377 174 -515
433 -1012 749 -1438 l84 -112 44 0 c41 0 48 4 83 45 148 178 355 508 508 810
154 305 253 550 349 870 20 66 41 128 46 137 6 10 10 39 10 64 0 57 -17 73
-78 74 -37 0 -75 -19 -293 -146 -138 -81 -257 -156 -264 -168 -8 -12 -25 -61
-39 -111 -75 -270 -187 -539 -294 -709 l-24 -39 -27 44 c-107 172 -195 383
-281 669 -30 101 -47 142 -68 161 -15 15 -133 88 -262 163 -208 121 -239 136
-280 136 -25 0 -51 -5 -58 -12z m313 -200 l243 -142 17 -60 c87 -314 205 -598
322 -773 72 -108 80 -114 104 -83 131 168 263 456 357 780 l39 135 243 142
c134 79 246 140 248 138 7 -7 -67 -147 -147 -281 -86 -142 -194 -297 -324
-460 -94 -118 -103 -134 -116 -194 -35 -176 -176 -598 -262 -789 -33 -72 -34
-75 -17 -65 6 4 -1 -9 -17 -30 -32 -43 -31 -43 -73 54 -125 294 -256 688 -288
864 -5 29 -31 69 -95 149 -174 215 -337 461 -445 670 -25 48 -42 87 -39 87 4
0 116 -64 250 -142z"/>
</g>
</svg>
